<svg width="250" height="250" xmlns="http://www.w3.org/2000/svg" xml:space="preserve" style="enable-background:new 0 0 250 250;" version="1.1">
 <style type="text/css">.st0{fill:#53a8ff;}
	.st1{fill:#409eff;}
	.st2{fill:#FFFFFF;}</style>

 <g>
  <title>background</title>
  <rect fill="none" id="canvas_background" height="819" width="1662" y="-1" x="-1"/>
 </g>
 <g>
  <title>Layer 1</title>
  <g id="svg_1">
   <polygon fill="#007fff" id="svg_2" points="125,30 125,30 125,30 31.900001525878906,63.19999694824219 46.099998474121094,186.3000030517578 125,230 125,230 125,230 203.89999389648438,186.3000030517578 218.10000610351562,63.19999694824219 " class="st0"/>
   <polygon fill="none" id="svg_3" points="125,30 125,52.2 125,52.1 125,153.4 125,153.4 125,230 125,230 203.9,186.3 218.1,63.2 125,30  " class="st1"/>
   <text stroke="null" transform="matrix(4.389344980958762,0,0,5.473234086746976,-358.786735899597,-330.7190979975639) " xml:space="preserve" text-anchor="start" font-family="Helvetica, Arial, sans-serif" font-size="24" id="svg_5" y="91.565009" x="102.212621" stroke-opacity="null" stroke-width="0" fill="#ffffff">E</text>
   <path id="svg_6" d="m39.5,76.453125" opacity="0.5" stroke-width="null" fill="#007fff"/>
   <path id="svg_7" d="m49.5,71.453125l-15.5,-23.453125" opacity="0.5" stroke-width="null" fill="#007fff"/>
  </g>
 </g>
</svg>